<svg version="1.1" id="Logo" xmlns="http://www.w3.org/2000/svg" xmlns:xlink="http://www.w3.org/1999/xlink" x="0px" y="0px" width="171px" height="42px" viewBox="0 0 171 42" enable-background="new 0 0 171 42" xml:space="preserve">
<path fill="#FF4E00" d="M11.609,40.121C4.018,31.172,0.553,13.692,0.516,13.483c-0.075-0.424,0.112-0.949,0.899-0.949h4.896  c0.499,0,0.814,0.249,0.921,0.749c1.967,9.18,5.743,17.971,7.545,20.446c1.802-2.475,5.578-11.266,7.545-20.446  c0.107-0.5,0.423-0.749,0.921-0.749h4.896c0.787,0,0.975,0.525,0.899,0.949c-0.037,0.208-3.502,17.688-11.094,26.638  c-0.846,0.998-1.856,1.498-3.167,1.498C13.465,41.619,12.455,41.119,11.609,40.121z M36.364,0.094c-2.195,0-3.974,1.779-3.974,3.975  c0,2.194,1.779,3.974,3.974,3.974s3.974-1.779,3.974-3.974C40.338,1.873,38.559,0.094,36.364,0.094z M73.858,0.094  c-2.195,0-3.974,1.779-3.974,3.975c0,2.194,1.779,3.974,3.974,3.974s3.974-1.779,3.974-3.974  C77.832,1.873,76.053,0.094,73.858,0.094z M38.611,12.534h-4.493c-0.691,0-1.037,0.327-1.037,0.979v26.838  c0,0.654,0.345,0.98,1.037,0.98h4.493c0.691,0,1.036-0.326,1.036-0.98V13.513C39.647,12.861,39.302,12.534,38.611,12.534z   M76.104,12.534h-4.493c-0.691,0-1.037,0.327-1.037,0.979v26.838c0,0.654,0.346,0.98,1.037,0.98h4.493  c0.69,0,1.036-0.326,1.036-0.98V13.513C77.141,12.861,76.795,12.534,76.104,12.534z M111.063,40.352c0,0.654,0.346,0.98,1.037,0.98  h4.492c0.691,0,1.037-0.326,1.037-0.98V18.639c1.341-0.911,5.535-2.325,8.583-0.533c1.849,1.087,2.546,4.052,2.532,7.501  l-0.001,14.744c0,0.654,0.346,0.98,1.037,0.98h4.493c0.69,0,1.036-0.326,1.036-0.98V25.146c0-8.984-4.108-13.523-12.325-13.592  c-3.979-0.033-8.388,1.494-10.712,3.513c-0.802,0.697-1.21,1.537-1.21,2.534V40.352z M156.147,17.891  c0.653,0,0.979-0.346,0.979-1.037v-3.291c0-0.691-0.325-1.028-0.979-1.028h-7.026v-6.73c0-0.652-0.346-0.979-1.036-0.979h-4.493  c-0.691,0-1.036,0.327-1.036,0.979v6.73h-3.744c-0.652,0-0.979,0.337-0.979,1.028v3.291c0,0.691,0.326,1.037,0.979,1.037l3.744,0  v13.823c0,4.113,1.534,6.373,2.303,7.258c0.768,0.883,2.722,2.832,6.682,2.82c3.529-0.008,6.436-1.957,7.66-3.225  c0.482-0.5,0.4-0.785,0.137-1.131c-0.075-0.096-2.268-2.957-2.268-2.957c-0.322-0.447-0.878-0.422-1.21-0.117  c-0.788,0.65-2.467,2.09-4.737,1.246c-1.65-0.613-2.001-2.455-2.001-3.836V17.891H156.147z M100.351,29.064H88.371  c0,3.816,2.636,7.199,6.911,7.199c2.611,0,4.954-0.902,7.027-2.709c0.693-0.693,1.193,0.096,1.21,0.117c0,0,2.023,2.863,2.303,3.254  c0.073,0.125,0.174,0.432-0.287,0.893c-2.728,2.727-6.202,4.088-10.425,4.088c-8.714,0-13.188-7.115-13.188-15.203  c0-9.716,6.225-15.148,13.304-15.148c6.093,0,11.403,4.653,11.403,11.115C106.629,26.932,104.535,29.064,100.351,29.064z   M100.581,22.498c0-2.25-1.402-5.59-5.597-5.59c-1.574,0-5.685,0.612-6.324,6.914h10.712  C100.178,23.822,100.581,23.383,100.581,22.498z M65.333,41.332c0.654,0,0.979-0.346,0.979-1.037v-3.627  c0-0.691-0.326-1.037-0.979-1.037l-13.591-0.002c1.308-3.314,9.677-11.383,12.556-15.981c1.069-1.708,1.612-3.027,1.612-3.888  c0-0.998-0.479-3.225-3.859-3.225H46.094c-0.652,0-0.979,0.346-0.979,1.037v3.571c0,0.69,0.327,1.036,0.979,1.036H58.25  c-0.61,1.178-8.674,9.787-11.663,14.917c-0.785,1.348-1.872,3.488-1.872,5.125c0,2.074,1.229,3.111,3.687,3.111H65.333z"/>
<g id="TM">
	<path fill="#FF4E00" d="M166.034,36.928l-0.074,0.514h-1.354v3.891h-0.613v-3.891h-1.422l0.074-0.514H166.034z M167.284,36.928   l1.317,2.695l1.293-2.695h0.605v4.404h-0.587v-3.354l-1.077,2.27h-0.481l-1.089-2.232v3.316h-0.582v-4.404H167.284z"/>
</g>
</svg>
