<?xml version="1.0" encoding="utf-8"?>
<!DOCTYPE svg PUBLIC "-//W3C//DTD SVG 1.1//EN" "http://www.w3.org/Graphics/SVG/1.1/DTD/svg11.dtd">
<svg version="1.1" id="Layer_1" xmlns="http://www.w3.org/2000/svg" xmlns:xlink="http://www.w3.org/1999/xlink" x="0px" y="0px"
	 width="288px" height="216px" viewBox="0 0 288 216" enable-background="new 0 0 288 216" xml:space="preserve">
<g>
	<path fill="#FFFFFF" d="M238.314,207.446v0.028c0,0-0.008,0-0.018-0.009C238.307,207.458,238.314,207.458,238.314,207.446z"/>
	<path fill="none" stroke="#000000" stroke-width="5" stroke-miterlimit="10" d="M238.314,207.446"/>
	<g>
		<path d="M271.645,215v-3.661v-0.009c-0.008-22.804-0.285-63.316-34.871-63.316l-0.006,25.693
			C236.768,196.521,252.27,215,271.645,215z"/>
		<path fill="none" stroke="#000000" stroke-width="5" stroke-miterlimit="10" d="M287.848,212.055c0,0-16.488,3.559-16.488-21.104
			v-39.266h11.135"/>
		<path d="M270.441,190.95c0,25.19,18.938,20.577,16.488,21.104L288,215h-16.518"/>
		<path d="M236.775,214.083v-3.661v-0.01c-0.008-22.072-14.621-40.107-33.033-41.238c-0.609-0.035-0.928,6.369-0.928,6.369
			c0,2.503-0.729,2.204-0.371,4.586C205.348,199.438,219.525,214.083,236.775,214.083z"/>
	</g>
	<circle fill="none" stroke="#000000" stroke-width="5" stroke-miterlimit="10" cx="236.775" cy="180.13" r="33.035"/>
</g>
<g>
	<path d="M88.167,176.918l0.006,36.247h-0.006c-18.105,0-32.786-16.231-32.786-36.247v-36.246
		C73.485,140.672,88.167,156.904,88.167,176.918z"/>
	<path fill="none" stroke="#000000" stroke-width="5" stroke-miterlimit="10" d="M88.172,213.165
		c18.104,0,32.779-16.239,32.779-36.255v-36.238"/>
	<path fill="none" stroke="#000000" stroke-width="5" stroke-miterlimit="10" d="M89.028,213.165
		c-18.104,0-32.786-16.231-32.786-36.247v-36.246c18.105,0,32.786,16.232,32.786,36.246l0.007,36.247"/>
</g>
<g>
	<path d="M159.127,65.004l0.008,148.16c-16.727,0-30.29-18.432-30.29-41.168v-32.935v-32.9
		C145.57,106.154,159.127,87.729,159.127,65.004z"/>
	
		<line fill="none" stroke="#000000" stroke-width="5" stroke-miterlimit="10" x1="112.647" y1="122.778" x2="133.574" y2="122.778"/>
	
		<line fill="none" stroke="#000000" stroke-width="5" stroke-miterlimit="10" x1="159.447" y1="122.778" x2="180.373" y2="122.778"/>
	<path fill="none" stroke="#000000" stroke-width="5" stroke-miterlimit="10" d="M159.127,65.004
		c0,22.726-13.557,41.149-30.282,41.159v32.9v32.935c0,22.735,13.563,41.168,30.29,41.168L159.127,65.004z"/>
</g>
<g>
	<path d="M47.854,47.074v165.173c-18.274,0-33.093-18.491-33.093-41.293V5.781C33.037,5.781,47.854,24.271,47.854,47.074z"/>
	<path fill="none" stroke="#000000" stroke-width="5" stroke-miterlimit="10" d="M1.699,9.635c4.243-2.469,8.987-3.854,13.98-3.854"
		/>
	<path fill="none" stroke="#000000" stroke-width="5" stroke-miterlimit="10" d="M14.762,5.781c18.274,0,33.093,18.49,33.093,41.293
		v165.173c-18.274,0-33.093-18.491-33.093-41.293V5.781z"/>
	<path fill="none" stroke="#000000" stroke-width="5" stroke-miterlimit="10" d="M47.862,212.247c4.418,0,8.633-1.082,12.487-3.046"
		/>
</g>
<path d="M196.4,140.672v36.238v0.008c-0.006,20.016-14.758,36.247-28.449,36.247l-0.006-36.247
	C167.945,156.894,182.631,140.672,196.4,140.672z"/>
<path fill="none" stroke="#000000" stroke-width="5" stroke-miterlimit="10" d="M196.4,177.378
	c-0.006,19.761-14.758,35.787-28.449,35.787l-0.006-35.787c0-19.771,14.686-35.788,28.455-35.788v35.779"/>
<path fill="none" stroke="#000000" stroke-width="5" stroke-miterlimit="10" d="M196.4,176.918v-0.008
	c0.006-20.025,15.617-36.238,34.885-36.238"/>
</svg>
