<?xml version="1.0" encoding="utf-8"?>
<!-- Generator: Adobe Illustrator 16.0.0, SVG Export Plug-In . SVG Version: 6.00 Build 0)  -->
<!DOCTYPE svg PUBLIC "-//W3C//DTD SVG 1.1//EN" "http://www.w3.org/Graphics/SVG/1.1/DTD/svg11.dtd">
<svg version="1.1" xmlns="http://www.w3.org/2000/svg" xmlns:xlink="http://www.w3.org/1999/xlink" x="0px" y="0px" width="360px"
	 height="360px" viewBox="0 0 360 360" enable-background="new 0 0 360 360" xml:space="preserve">
<g id="Layer_1">
	<rect x="-423" fill="#03BCD4" width="360" height="360"/>
	<g>
		<rect x="-387" y="189" fill="#FFFFFF" width="153" height="252"/>
		<rect x="-369" y="207" fill="#03BCD4" width="9" height="27"/>
		<rect x="-333" y="207" fill="#03BCD4" width="9" height="27"/>
		<rect x="-297" y="207" fill="#03BCD4" width="9" height="27"/>
		<rect x="-261" y="207" fill="#03BCD4" width="9" height="27"/>
		<rect x="-369" y="261" fill="#03BCD4" width="9" height="27"/>
		<rect x="-333" y="261" fill="#03BCD4" width="9" height="27"/>
		<rect x="-297" y="261" fill="#03BCD4" width="9" height="27"/>
		<rect x="-261" y="261" fill="#03BCD4" width="9" height="27"/>
		<rect x="-369" y="315" fill="#03BCD4" width="9" height="27"/>
		<rect x="-333" y="315" fill="#03BCD4" width="9" height="27"/>
		<rect x="-297" y="315" fill="#03BCD4" width="9" height="27"/>
		<rect x="-261" y="315" fill="#03BCD4" width="9" height="27"/>
		<rect x="-369" y="369" fill="#03BCD4" width="9" height="18"/>
		<rect x="-333" y="369" fill="#03BCD4" width="9" height="18"/>
		<rect x="-297" y="369" fill="#03BCD4" width="9" height="18"/>
		<rect x="-261" y="369" fill="#03BCD4" width="9" height="18"/>
	</g>
	<rect x="-422" fill="#03BCD4" width="360" height="360"/>
	<g>
		<rect x="-386" y="189" fill="#FFFFFF" width="153" height="252"/>
		<rect x="-368" y="207" fill="#03BCD4" width="9" height="27"/>
		<rect x="-332" y="207" fill="#03BCD4" width="9" height="27"/>
		<rect x="-296" y="207" fill="#03BCD4" width="9" height="27"/>
		<rect x="-260" y="207" fill="#03BCD4" width="9" height="27"/>
		<rect x="-368" y="261" fill="#03BCD4" width="9" height="27"/>
		<rect x="-332" y="261" fill="#03BCD4" width="9" height="27"/>
		<rect x="-296" y="261" fill="#03BCD4" width="9" height="27"/>
		<rect x="-260" y="261" fill="#03BCD4" width="9" height="27"/>
		<rect x="-368" y="315" fill="#03BCD4" width="9" height="27"/>
		<rect x="-332" y="315" fill="#03BCD4" width="9" height="27"/>
		<rect x="-296" y="315" fill="#03BCD4" width="9" height="27"/>
		<rect x="-260" y="315" fill="#03BCD4" width="9" height="27"/>
		<rect x="-368" y="369" fill="#03BCD4" width="9" height="18"/>
		<rect x="-332" y="369" fill="#03BCD4" width="9" height="18"/>
		<rect x="-296" y="369" fill="#03BCD4" width="9" height="18"/>
		<rect x="-260" y="369" fill="#03BCD4" width="9" height="18"/>
	</g>
</g>
<g id="Layer_5">
	<rect x="821" fill="#03BCD4" width="360" height="360"/>
	<g>
		
			<rect x="884" y="152" transform="matrix(0.998 0.0634 -0.0634 0.998 16.9984 -60.4448)" fill="#FFFFFF" width="153" height="171"/>
		
			<rect x="905.534" y="166.684" transform="matrix(0.998 0.0635 -0.0635 0.998 13.2717 -57.3988)" fill="#03BCD4" width="9.001" height="27"/>
		
			<rect x="941.462" y="168.967" transform="matrix(0.998 0.0634 -0.0634 0.998 13.4777 -59.6306)" fill="#03BCD4" width="9" height="27"/>
		
			<rect x="977.389" y="171.25" transform="matrix(0.998 0.0634 -0.0634 0.998 13.6949 -61.9047)" fill="#03BCD4" width="9" height="27"/>
		
			<rect x="1013.316" y="173.534" transform="matrix(0.998 0.0634 -0.0634 0.998 13.9102 -64.1719)" fill="#03BCD4" width="9.001" height="27"/>
		
			<rect x="902.109" y="220.575" transform="matrix(0.998 0.0634 -0.0634 0.998 16.6716 -57.0307)" fill="#03BCD4" width="9" height="27"/>
		
			<rect x="938.036" y="222.858" transform="matrix(0.998 0.0634 -0.0634 0.998 16.8889 -59.3048)" fill="#03BCD4" width="9" height="27"/>
		
			<rect x="973.964" y="225.142" transform="matrix(0.998 0.0634 -0.0634 0.998 17.1039 -61.5723)" fill="#03BCD4" width="9.001" height="27"/>
		
			<rect x="1009.891" y="227.425" transform="matrix(0.998 0.0634 -0.0634 0.998 17.3232 -63.853)" fill="#03BCD4" width="9" height="27"/>
		
			<rect x="898.683" y="274.466" transform="matrix(0.998 0.0634 -0.0634 0.998 20.0804 -56.6989)" fill="#03BCD4" width="9.001" height="27"/>
		
			<rect x="934.611" y="276.749" transform="matrix(0.998 0.0634 -0.0634 0.998 20.2975 -58.9728)" fill="#03BCD4" width="9.001" height="27"/>
		
			<rect x="970.539" y="279.033" transform="matrix(0.998 0.0634 -0.0634 0.998 20.5172 -61.2532)" fill="#03BCD4" width="9" height="27"/>
		
			<rect x="1006.466" y="281.316" transform="matrix(0.998 0.0634 -0.0634 0.998 20.7344 -63.5273)" fill="#03BCD4" width="9" height="27"/>
	</g>
	<path fill="#FFFFFF" d="M1027.994,327.462c5.762,0.901,16.586-0.16,21.671-4.811s15.367-14.667,24.129-13.402
		c-5.484,17.759-13.229,35.094-15.484,53.089c14.404-14.765,54.86-47.219,44.11-71.5c-10.767-24.319-53.864-14.796-72.42-7.838"/>
	<path fill="#FFFFFF" d="M878.73,317.976c-20.465-2.75-22.578,2.024-22.578,0.784c5.484,17.759,3.592,23.245,5.848,41.24
		c-14.404-14.765-42.25-54.66-31.5-78.942c10.767-24.319,35.159-14.017,53.715-7.058"/>
	<path fill="#FFFFFF" d="M1034.001,219.667c14.969-6.34,44.329-23.206,38.239-44.274c-1.658-5.736-7.956-8.595-8.886-14.733
		c-1.465-9.671,8.653-17.073,17.133-18.366c10.617-1.619,22.688,4.878,24.706,16.002c1.749,9.647-4.997,15.258-10.627,21.794
		c-5.543,6.435-6.449,12.29-7.618,20.519c-1.699,11.958-5.622,22.64-12.267,32.781c-5.679,8.669-13.486,19.411-23.594,23.258
		c-5.93,2.258-12.899,2.265-19.087,3.685"/>
	<path fill="#FFFFFF" d="M885.334,229.667c-22.487-14.204-39.386-43.264-23.787-69.133c4.715-7.819,15.071-13.51,17.121-22.742
		c2.312-10.41-7.041-19.886-15.823-23.707c-8.611-3.747-20.515-3.434-24.188,6.755c-3.106,8.618,2.266,17.907,3.195,26.427
		c2.531,23.208-18.918,41.939-10.374,65.944c7.985,22.435,31.824,38.853,53.855,45.123"/>
</g>
<g id="Layer_2">
	<defs>
		<rect id="SVGID_1_" width="360" height="360"/>
	</defs>
	<clipPath id="SVGID_2_">
		<use xlink:href="#SVGID_1_"  overflow="visible"/>
	</clipPath>
	<rect clip-path="url(#SVGID_2_)" fill="#03BCD4" width="360" height="360"/>
	<g clip-path="url(#SVGID_2_)">
		<rect x="171" y="90" fill="#FFFFFF" width="144" height="306"/>
		<line fill="#FFFFFF" stroke="#03BCD4" stroke-width="9" stroke-miterlimit="10" x1="242.5" y1="162" x2="242.5" y2="189"/>
		<line fill="#FFFFFF" stroke="#03BCD4" stroke-width="9" stroke-miterlimit="10" x1="278.5" y1="162" x2="278.5" y2="189"/>
		<line fill="#FFFFFF" stroke="#03BCD4" stroke-width="9" stroke-miterlimit="10" x1="242.5" y1="216" x2="242.5" y2="243"/>
		<line fill="#FFFFFF" stroke="#03BCD4" stroke-width="9" stroke-miterlimit="10" x1="278.5" y1="216" x2="278.5" y2="243"/>
		<line fill="#FFFFFF" stroke="#03BCD4" stroke-width="9" stroke-miterlimit="10" x1="242.5" y1="270" x2="242.5" y2="297"/>
		<line fill="#FFFFFF" stroke="#03BCD4" stroke-width="9" stroke-miterlimit="10" x1="278.5" y1="270" x2="278.5" y2="297"/>
		<line fill="#FFFFFF" stroke="#03BCD4" stroke-width="9" stroke-miterlimit="10" x1="242.5" y1="324" x2="242.5" y2="351"/>
		<line fill="#FFFFFF" stroke="#03BCD4" stroke-width="9" stroke-miterlimit="10" x1="278.5" y1="324" x2="278.5" y2="351"/>
		<line fill="#FFFFFF" stroke="#03BCD4" stroke-width="9" stroke-miterlimit="10" x1="242.5" y1="378" x2="242.5" y2="405"/>
		<line fill="#FFFFFF" stroke="#03BCD4" stroke-width="9" stroke-miterlimit="10" x1="278.5" y1="378" x2="278.5" y2="405"/>
		<line fill="#FFFFFF" stroke="#03BCD4" stroke-width="9" stroke-miterlimit="10" x1="242.5" y1="108" x2="242.5" y2="135"/>
		<g>
			<line fill="#FFFFFF" stroke="#03BCD4" stroke-width="9" stroke-miterlimit="10" x1="206.5" y1="162" x2="206.5" y2="189"/>
			<line fill="#FFFFFF" stroke="#03BCD4" stroke-width="9" stroke-miterlimit="10" x1="206.5" y1="216" x2="206.5" y2="243"/>
			<line fill="#FFFFFF" stroke="#03BCD4" stroke-width="9" stroke-miterlimit="10" x1="206.5" y1="270" x2="206.5" y2="297"/>
			<line fill="#FFFFFF" stroke="#03BCD4" stroke-width="9" stroke-miterlimit="10" x1="206.5" y1="324" x2="206.5" y2="351"/>
			<line fill="#FFFFFF" stroke="#03BCD4" stroke-width="9" stroke-miterlimit="10" x1="206.5" y1="378" x2="206.5" y2="405"/>
			<line fill="#FFFFFF" stroke="#03BCD4" stroke-width="9" stroke-miterlimit="10" x1="206.5" y1="108" x2="206.5" y2="135"/>
		</g>
		<line fill="#FFFFFF" stroke="#03BCD4" stroke-width="9" stroke-miterlimit="10" x1="278.5" y1="108" x2="278.5" y2="135"/>
	</g>
	<g clip-path="url(#SVGID_2_)">
		<rect x="53.5" y="197.5" fill="#FFFFFF" stroke="#03BCD4" stroke-width="9" stroke-miterlimit="10" width="162" height="252"/>
		<line fill="#FFFFFF" stroke="#03BCD4" stroke-width="9" stroke-miterlimit="10" x1="189.5" y1="216" x2="189.5" y2="243"/>
		<line fill="#FFFFFF" stroke="#03BCD4" stroke-width="9" stroke-miterlimit="10" x1="152.5" y1="216" x2="152.5" y2="243"/>
		<line fill="#FFFFFF" stroke="#03BCD4" stroke-width="9" stroke-miterlimit="10" x1="81.5" y1="216" x2="81.5" y2="243"/>
		<line fill="#FFFFFF" stroke="#03BCD4" stroke-width="9" stroke-miterlimit="10" x1="116.5" y1="216" x2="116.5" y2="243"/>
		<line fill="#FFFFFF" stroke="#03BCD4" stroke-width="9" stroke-miterlimit="10" x1="189.5" y1="252" x2="189.5" y2="279"/>
		<line fill="#FFFFFF" stroke="#03BCD4" stroke-width="9" stroke-miterlimit="10" x1="152.5" y1="252" x2="152.5" y2="279"/>
		<line fill="#FFFFFF" stroke="#03BCD4" stroke-width="9" stroke-miterlimit="10" x1="81.5" y1="252" x2="81.5" y2="279"/>
		<line fill="#FFFFFF" stroke="#03BCD4" stroke-width="9" stroke-miterlimit="10" x1="116.5" y1="252" x2="116.5" y2="279"/>
		<line fill="#FFFFFF" stroke="#03BCD4" stroke-width="9" stroke-miterlimit="10" x1="189.5" y1="288" x2="189.5" y2="315"/>
		<line fill="#FFFFFF" stroke="#03BCD4" stroke-width="9" stroke-miterlimit="10" x1="152.5" y1="288" x2="152.5" y2="315"/>
		<line fill="#FFFFFF" stroke="#03BCD4" stroke-width="9" stroke-miterlimit="10" x1="81.5" y1="288" x2="81.5" y2="315"/>
		<line fill="#FFFFFF" stroke="#03BCD4" stroke-width="9" stroke-miterlimit="10" x1="116.5" y1="288" x2="116.5" y2="315"/>
		<line fill="#FFFFFF" stroke="#03BCD4" stroke-width="9" stroke-miterlimit="10" x1="189.5" y1="324" x2="189.5" y2="351"/>
		<line fill="#FFFFFF" stroke="#03BCD4" stroke-width="9" stroke-miterlimit="10" x1="152.5" y1="324" x2="152.5" y2="351"/>
		<line fill="#FFFFFF" stroke="#03BCD4" stroke-width="9" stroke-miterlimit="10" x1="81.5" y1="324" x2="81.5" y2="351"/>
		<line fill="#FFFFFF" stroke="#03BCD4" stroke-width="9" stroke-miterlimit="10" x1="116.5" y1="324" x2="116.5" y2="351"/>
		<line fill="#FFFFFF" stroke="#03BCD4" stroke-width="9" stroke-miterlimit="10" x1="189.5" y1="360" x2="189.5" y2="387"/>
		<line fill="#FFFFFF" stroke="#03BCD4" stroke-width="9" stroke-miterlimit="10" x1="152.5" y1="360" x2="152.5" y2="387"/>
		<line fill="#FFFFFF" stroke="#03BCD4" stroke-width="9" stroke-miterlimit="10" x1="81.5" y1="360" x2="81.5" y2="387"/>
		<line fill="#FFFFFF" stroke="#03BCD4" stroke-width="9" stroke-miterlimit="10" x1="116.5" y1="360" x2="116.5" y2="387"/>
		<line fill="#FFFFFF" stroke="#03BCD4" stroke-width="9" stroke-miterlimit="10" x1="189.5" y1="396" x2="189.5" y2="423"/>
		<line fill="#FFFFFF" stroke="#03BCD4" stroke-width="9" stroke-miterlimit="10" x1="152.5" y1="396" x2="152.5" y2="423"/>
		<line fill="#FFFFFF" stroke="#03BCD4" stroke-width="9" stroke-miterlimit="10" x1="81.5" y1="396" x2="81.5" y2="423"/>
		<line fill="#FFFFFF" stroke="#03BCD4" stroke-width="9" stroke-miterlimit="10" x1="116.5" y1="396" x2="116.5" y2="423"/>
		<line fill="#FFFFFF" stroke="#03BCD4" stroke-width="9" stroke-miterlimit="10" x1="189.5" y1="432" x2="189.5" y2="459"/>
		<line fill="#FFFFFF" stroke="#03BCD4" stroke-width="9" stroke-miterlimit="10" x1="152.5" y1="432" x2="152.5" y2="459"/>
		<line fill="#FFFFFF" stroke="#03BCD4" stroke-width="9" stroke-miterlimit="10" x1="81.5" y1="432" x2="81.5" y2="459"/>
		<line fill="#FFFFFF" stroke="#03BCD4" stroke-width="9" stroke-miterlimit="10" x1="116.5" y1="432" x2="116.5" y2="459"/>
	</g>
</g>
<g id="Layer_3">
	<defs>
		<rect id="SVGID_3_" x="441" width="360" height="360"/>
	</defs>
	<clipPath id="SVGID_4_">
		<use xlink:href="#SVGID_3_"  overflow="visible"/>
	</clipPath>
	<rect x="441" clip-path="url(#SVGID_4_)" fill="#03BCD4" width="360" height="360"/>
	<g clip-path="url(#SVGID_4_)">
		<polyline fill="none" stroke="#FFFFFF" stroke-width="6" stroke-miterlimit="10" points="627.881,239.688 702.5,98 
			775.082,240.209 		"/>
		<polyline fill="none" stroke="#FFFFFF" stroke-width="6" stroke-linejoin="bevel" stroke-miterlimit="10" points="710.939,115.03 
			681.328,141.414 746.349,183.372 630.694,235.533 775.819,258.444 		"/>
		<polyline fill="none" stroke="#FFFFFF" stroke-width="6" stroke-linejoin="bevel" stroke-miterlimit="10" points="693.701,115.03 
			723.312,141.414 658.351,183.372 772.038,235.533 627.914,258.444 		"/>
	</g>
	<g clip-path="url(#SVGID_4_)">
		<rect x="638.5" y="242.5" fill="#FFFFFF" stroke="#03BCD4" stroke-width="9" stroke-miterlimit="10" width="144" height="306"/>
		<line fill="#FFFFFF" stroke="#03BCD4" stroke-width="9" stroke-miterlimit="10" x1="710.5" y1="314" x2="710.5" y2="341"/>
		<line fill="#FFFFFF" stroke="#03BCD4" stroke-width="9" stroke-miterlimit="10" x1="746.5" y1="314" x2="746.5" y2="341"/>
		<line fill="#FFFFFF" stroke="#03BCD4" stroke-width="9" stroke-miterlimit="10" x1="710.5" y1="368" x2="710.5" y2="395"/>
		<line fill="#FFFFFF" stroke="#03BCD4" stroke-width="9" stroke-miterlimit="10" x1="746.5" y1="368" x2="746.5" y2="395"/>
		<line fill="#FFFFFF" stroke="#03BCD4" stroke-width="9" stroke-miterlimit="10" x1="710.5" y1="422" x2="710.5" y2="449"/>
		<line fill="#FFFFFF" stroke="#03BCD4" stroke-width="9" stroke-miterlimit="10" x1="746.5" y1="422" x2="746.5" y2="449"/>
		<line fill="#FFFFFF" stroke="#03BCD4" stroke-width="9" stroke-miterlimit="10" x1="710.5" y1="476" x2="710.5" y2="503"/>
		<line fill="#FFFFFF" stroke="#03BCD4" stroke-width="9" stroke-miterlimit="10" x1="746.5" y1="476" x2="746.5" y2="503"/>
		<line fill="#FFFFFF" stroke="#03BCD4" stroke-width="9" stroke-miterlimit="10" x1="710.5" y1="530" x2="710.5" y2="557"/>
		<line fill="#FFFFFF" stroke="#03BCD4" stroke-width="9" stroke-miterlimit="10" x1="746.5" y1="530" x2="746.5" y2="557"/>
		<line fill="#FFFFFF" stroke="#03BCD4" stroke-width="9" stroke-miterlimit="10" x1="710.5" y1="260" x2="710.5" y2="287"/>
		<line fill="#FFFFFF" stroke="#03BCD4" stroke-width="9" stroke-miterlimit="10" x1="746.5" y1="260" x2="746.5" y2="287"/>
		<line fill="#FFFFFF" stroke="#03BCD4" stroke-width="9" stroke-miterlimit="10" x1="675.5" y1="260" x2="675.5" y2="287"/>
		<line fill="#FFFFFF" stroke="#03BCD4" stroke-width="9" stroke-miterlimit="10" x1="675.5" y1="314" x2="675.5" y2="341"/>
		<line fill="#FFFFFF" stroke="#03BCD4" stroke-width="9" stroke-miterlimit="10" x1="675.5" y1="368" x2="675.5" y2="395"/>
		<line fill="#FFFFFF" stroke="#03BCD4" stroke-width="9" stroke-miterlimit="10" x1="675.5" y1="422" x2="675.5" y2="449"/>
		<line fill="#FFFFFF" stroke="#03BCD4" stroke-width="9" stroke-miterlimit="10" x1="675.5" y1="476" x2="675.5" y2="503"/>
		<line fill="#FFFFFF" stroke="#03BCD4" stroke-width="9" stroke-miterlimit="10" x1="675.5" y1="530" x2="675.5" y2="557"/>
	</g>
	
		<line clip-path="url(#SVGID_4_)" fill="#FFFFFF" stroke="#03BCD4" stroke-width="9" stroke-miterlimit="10" x1="613.5" y1="387" x2="613.5" y2="414"/>
	<g clip-path="url(#SVGID_4_)">
		<g>
			<ellipse fill="#FFFFFF" stroke="#03BCD4" stroke-width="9" stroke-miterlimit="10" cx="594" cy="135" rx="72" ry="45"/>
			<rect x="503.5" y="135.5" fill="#FFFFFF" stroke="#03BCD4" stroke-width="9" stroke-miterlimit="10" width="180" height="243"/>
			<rect x="521.5" y="135.5" fill="#FFFFFF" stroke="#03BCD4" stroke-width="9" stroke-miterlimit="10" width="27" height="243"/>
			<rect x="539.5" y="135.5" fill="#FFFFFF" stroke="#03BCD4" stroke-width="9" stroke-miterlimit="10" width="27" height="243"/>
			<rect x="557.5" y="135.5" fill="#FFFFFF" stroke="#03BCD4" stroke-width="9" stroke-miterlimit="10" width="27" height="243"/>
			<rect x="584.5" y="135.5" fill="#FFFFFF" stroke="#03BCD4" stroke-width="9" stroke-miterlimit="10" width="27" height="243"/>
			<rect x="612.5" y="135.5" fill="#FFFFFF" stroke="#03BCD4" stroke-width="9" stroke-miterlimit="10" width="27" height="243"/>
			<rect x="639.5" y="135.5" fill="#FFFFFF" stroke="#03BCD4" stroke-width="9" stroke-miterlimit="10" width="27" height="243"/>
		</g>
		<polygon fill="#FFFFFF" points="589.081,90 593.5,27.5 599.418,90 		"/>
	</g>
	<g clip-path="url(#SVGID_4_)">
		<rect x="468.5" y="206.5" fill="#FFFFFF" stroke="#03BCD4" stroke-width="9" stroke-miterlimit="10" width="126" height="252"/>
		<line fill="#FFFFFF" stroke="#03BCD4" stroke-width="9" stroke-miterlimit="10" x1="568.5" y1="225" x2="568.5" y2="252"/>
		<line fill="#FFFFFF" stroke="#03BCD4" stroke-width="9" stroke-miterlimit="10" x1="497.5" y1="225" x2="497.5" y2="252"/>
		<line fill="#FFFFFF" stroke="#03BCD4" stroke-width="9" stroke-miterlimit="10" x1="532.5" y1="225" x2="532.5" y2="252"/>
		<line fill="#FFFFFF" stroke="#03BCD4" stroke-width="9" stroke-miterlimit="10" x1="568.5" y1="261" x2="568.5" y2="288"/>
		<line fill="#FFFFFF" stroke="#03BCD4" stroke-width="9" stroke-miterlimit="10" x1="497.5" y1="261" x2="497.5" y2="288"/>
		<line fill="#FFFFFF" stroke="#03BCD4" stroke-width="9" stroke-miterlimit="10" x1="532.5" y1="261" x2="532.5" y2="288"/>
		<line fill="#FFFFFF" stroke="#03BCD4" stroke-width="9" stroke-miterlimit="10" x1="568.5" y1="297" x2="568.5" y2="324"/>
		<line fill="#FFFFFF" stroke="#03BCD4" stroke-width="9" stroke-miterlimit="10" x1="497.5" y1="297" x2="497.5" y2="324"/>
		<line fill="#FFFFFF" stroke="#03BCD4" stroke-width="9" stroke-miterlimit="10" x1="532.5" y1="297" x2="532.5" y2="324"/>
		<line fill="#FFFFFF" stroke="#03BCD4" stroke-width="9" stroke-miterlimit="10" x1="568.5" y1="333" x2="568.5" y2="360"/>
		<line fill="#FFFFFF" stroke="#03BCD4" stroke-width="9" stroke-miterlimit="10" x1="497.5" y1="333" x2="497.5" y2="360"/>
		<line fill="#FFFFFF" stroke="#03BCD4" stroke-width="9" stroke-miterlimit="10" x1="532.5" y1="333" x2="532.5" y2="360"/>
		<line fill="#FFFFFF" stroke="#03BCD4" stroke-width="9" stroke-miterlimit="10" x1="568.5" y1="369" x2="568.5" y2="396"/>
		<line fill="#FFFFFF" stroke="#03BCD4" stroke-width="9" stroke-miterlimit="10" x1="497.5" y1="369" x2="497.5" y2="396"/>
		<line fill="#FFFFFF" stroke="#03BCD4" stroke-width="9" stroke-miterlimit="10" x1="532.5" y1="369" x2="532.5" y2="396"/>
		<line fill="#FFFFFF" stroke="#03BCD4" stroke-width="9" stroke-miterlimit="10" x1="568.5" y1="405" x2="568.5" y2="432"/>
		<line fill="#FFFFFF" stroke="#03BCD4" stroke-width="9" stroke-miterlimit="10" x1="497.5" y1="405" x2="497.5" y2="432"/>
		<line fill="#FFFFFF" stroke="#03BCD4" stroke-width="9" stroke-miterlimit="10" x1="532.5" y1="405" x2="532.5" y2="432"/>
	</g>
	
		<line clip-path="url(#SVGID_4_)" fill="#FFFFFF" stroke="#03BCD4" stroke-width="9" stroke-miterlimit="10" x1="613.5" y1="423" x2="613.5" y2="450"/>
	
		<line clip-path="url(#SVGID_4_)" fill="#FFFFFF" stroke="#03BCD4" stroke-width="9" stroke-miterlimit="10" x1="576.5" y1="423" x2="576.5" y2="450"/>
	
		<line clip-path="url(#SVGID_4_)" fill="#FFFFFF" stroke="#03BCD4" stroke-width="9" stroke-miterlimit="10" x1="505.5" y1="423" x2="505.5" y2="450"/>
	
		<line clip-path="url(#SVGID_4_)" fill="#FFFFFF" stroke="#03BCD4" stroke-width="9" stroke-miterlimit="10" x1="540.5" y1="423" x2="540.5" y2="450"/>
	<g clip-path="url(#SVGID_4_)">
		<path fill="#FFFFFF" stroke="#03BCD4" stroke-width="3" stroke-miterlimit="10" d="M772.07,102.699
			c5.53-5.53-8.728-28.931-31.96-52.163c-23.227-23.227-46.674-37.444-52.205-31.914c-0.84,0.84-1.625,2.215-1.309,3.829
			c0.317,1.614,20.773,60.825,20.773,60.825s58.201,20.035,60.827,20.776S771.23,103.539,772.07,102.699z"/>
		<path fill="#FFFFFF" stroke="#03BCD4" stroke-width="3.2247" stroke-miterlimit="10" d="M774.576,100.193
			c-5.53,5.53-28.842-8.817-52.075-32.049c-23.227-23.227-37.576-46.542-32.046-52.072c5.53-5.53,28.845,8.82,52.071,32.046
			C765.759,71.351,780.105,94.664,774.576,100.193z"/>
		<path fill="#FFFFFF" stroke="#03BCD4" stroke-width="3" stroke-miterlimit="10" d="M726.777,56.864l44.706-40.037l2.336,2.336
			l-40.032,44.711c0,0-3.437,1.016-5.734-1.282C725.755,60.294,726.777,56.864,726.777,56.864z"/>
	</g>
</g>
<g id="Layer_4">
	<polygon fill="#FFFFFF" points="649,-291.938 638.368,-297 659.633,-297 	"/>
	
		<ellipse fill="#FFFFFF" stroke="#03BCD4" stroke-width="0.5764" stroke-miterlimit="10" cx="649" cy="-297.578" rx="10.633" ry="2.531"/>
	
		<ellipse fill="#FFFFFF" stroke="#03BCD4" stroke-width="0.5764" stroke-miterlimit="10" cx="649" cy="-298.703" rx="10.633" ry="2.531"/>
	<polygon fill="#FFFFFF" stroke="#03BCD4" stroke-miterlimit="10" points="648.114,-297.695 648.705,-308.5 649.295,-308.5 
		649.886,-297.695 649,-297.133 	"/>
	<polyline fill="none" stroke="#03BCD4" stroke-width="3.2247" stroke-miterlimit="10" points="767.961,-43.937 813.881,-132.312 
		887.5,-274 961.082,-131.791 1006.54,-43.937 	"/>
	<polyline fill="none" stroke="#03BCD4" stroke-width="3.2247" stroke-linejoin="bevel" stroke-miterlimit="10" points="
		895.939,-256.97 866.328,-230.586 931.349,-188.628 815.694,-136.467 961.819,-113.556 798.19,-90.672 991.07,-68.021 
		770.365,-47.653 	"/>
	<polyline fill="none" stroke="#03BCD4" stroke-width="3.2247" stroke-linejoin="bevel" stroke-miterlimit="10" points="
		878.701,-256.97 908.312,-230.586 843.351,-188.628 959.038,-136.467 812.914,-113.556 976.543,-90.672 783.663,-68.021 
		1004.368,-47.653 	"/>
	<polyline fill="none" stroke="#03BCD4" stroke-width="3.2247" stroke-miterlimit="10" points="1073.881,-132.312 1148.5,-274 
		1221.082,-131.791 	"/>
	<polyline fill="none" stroke="#03BCD4" stroke-width="3.2247" stroke-linejoin="bevel" stroke-miterlimit="10" points="
		1156.939,-256.97 1127.328,-230.586 1192.349,-188.628 1076.694,-136.467 1221.819,-113.556 	"/>
	<polyline fill="none" stroke="#03BCD4" stroke-width="3.2247" stroke-linejoin="bevel" stroke-miterlimit="10" points="
		1139.701,-256.97 1169.312,-230.586 1104.351,-188.628 1218.038,-136.467 1073.914,-113.556 	"/>
</g>
</svg>
