<?xml version="1.0" encoding="utf-8"?>
<!DOCTYPE svg PUBLIC "-//W3C//DTD SVG 1.1//EN" "http://www.w3.org/Graphics/SVG/1.1/DTD/svg11.dtd">
<svg version="1.1" id="Layer_1" xmlns="http://www.w3.org/2000/svg" xmlns:xlink="http://www.w3.org/1999/xlink" x="0px" y="0px"
	 width="288px" height="216px" viewBox="0 0 288 216" enable-background="new 0 0 288 216" xml:space="preserve">
<g>
	<g>
		<g>
			<path fill="#FFFFFF" d="M238.445,204.133v0.027c0,0-0.008,0-0.016-0.01C238.438,204.143,238.445,204.143,238.445,204.133z"/>
		</g>
		<g>
			<path fill="#FFFFFF" d="M238.445,204.133"/>
		</g>
		<g>
			<g>
				<path fill="#FFFFFF" d="M271.15,211.543v-3.593v-0.009c-0.008-22.374-0.281-62.125-34.215-62.125l-0.008,25.21
					C236.928,193.41,252.137,211.543,271.15,211.543z"/>
			</g>
			<g>
				<path fill="#FFFFFF" d="M284.985,211.076c-2.367,0-6.013-0.527-9.311-3.188c-4.683-3.781-7.056-10.49-7.056-19.944v-40.778
					h13.176v4.502h-8.674v36.276c0,7.989,1.794,13.509,5.334,16.403c3.636,2.971,7.951,2.139,8.133,2.103l0.609,5.093
					C287.197,211.543,286.448,211.076,284.985,211.076z"/>
			</g>
			<g>
				<path fill="#FFFFFF" d="M269.969,187.944c0,24.718,18.582,20.19,16.18,20.708l1.049,2.891H270.99"/>
			</g>
			<g>
				<path fill="#FFFFFF" d="M236.936,210.643v-3.593v-0.009c-0.008-21.658-14.346-39.352-32.412-40.463
					c-0.598-0.035-0.91,6.249-0.91,6.249c0,2.458-0.716,2.163-0.364,4.5C206.1,196.273,220.012,210.643,236.936,210.643z"/>
			</g>
		</g>
		<g>
			<path fill="#FFFFFF" d="M236.936,211.993c-19.113,0-34.664-15.551-34.664-34.665c0-19.113,15.551-34.664,34.664-34.664
				s34.664,15.551,34.664,34.664C271.6,196.442,256.049,211.993,236.936,211.993z M236.936,147.166
				c-16.631,0-30.162,13.53-30.162,30.162c0,16.633,13.531,30.163,30.162,30.163s30.162-13.53,30.162-30.163
				C267.098,160.696,253.566,147.166,236.936,147.166z"/>
		</g>
	</g>
	<g>
		<g>
			<path fill="#FFFFFF" d="M88.42,174.178l0.006,35.564H88.42c-17.765,0-32.169-15.926-32.169-35.564v-35.564
				C74.016,138.613,88.42,154.538,88.42,174.178z"/>
		</g>
		<g>
			<path fill="#FFFFFF" d="M88.426,211.993v-4.502c16.493,0,29.912-14.947,29.912-33.321v-35.557h4.502v35.557
				C122.84,195.025,107.402,211.993,88.426,211.993z"/>
		</g>
		<g>
			<path fill="#FFFFFF" d="M89.266,211.993c-18.979,0-34.42-16.964-34.42-37.815v-37.816h2.251c18.979,0,34.42,16.965,34.42,37.816
				l0.006,35.564h-2.257V211.993z M59.348,140.957v33.221c0,17.527,12.221,31.938,27.673,33.221l-0.006-33.221
				C87.015,156.652,74.797,142.242,59.348,140.957z"/>
		</g>
	</g>
	<g>
		<g>
			<path fill="#FFFFFF" d="M158.947,64.367l0.007,145.375c-16.412,0-29.72-18.088-29.72-40.394v-32.315v-32.281
				C145.646,104.743,158.947,86.666,158.947,64.367z"/>
		</g>
		<g>
			<rect x="113.342" y="118.805" fill="#FFFFFF" width="20.534" height="4.502"/>
		</g>
		<g>
			<rect x="159.261" y="118.805" fill="#FFFFFF" width="20.534" height="4.502"/>
		</g>
		<g>
			<path fill="#FFFFFF" d="M161.205,211.993h-2.251c-17.629,0-31.971-19.13-31.971-42.645v-66.846l2.25-0.001
				c15.142-0.008,27.462-17.115,27.462-38.134h4.502L161.205,211.993z M131.485,106.897v62.451
				c0,19.979,11.121,36.421,25.218,38.017l-0.006-121.208C151.476,97.818,142.2,105.893,131.485,106.897z"/>
		</g>
	</g>
	<g>
		<g>
			<path fill="#FFFFFF" d="M47.967,46.774v162.067c-17.931,0-32.471-18.143-32.471-40.517V6.258
				C33.427,6.258,47.967,24.4,47.967,46.774z"/>
		</g>
		<g>
			<path fill="#FFFFFF" d="M3.811,11.985L1.546,8.094c4.661-2.712,9.657-4.087,14.85-4.087v4.502
				C12.009,8.509,7.774,9.678,3.811,11.985z"/>
		</g>
		<g>
			<path fill="#FFFFFF" d="M50.218,211.093h-2.251c-19.146,0-34.722-19.186-34.722-42.768V4.007h2.251
				c19.146,0,34.722,19.186,34.722,42.768V211.093z M17.747,8.614v159.711c0,20.142,12.353,36.698,27.969,38.16V46.774
				C45.716,26.633,33.363,10.076,17.747,8.614z"/>
		</g>
		<g>
			<path fill="#FFFFFF" d="M47.974,211.093v-4.502c3.88,0,7.658-0.923,11.23-2.743l2.044,4.01
				C57.037,210.004,52.571,211.093,47.974,211.093z"/>
		</g>
	</g>
	<g>
		<g>
			<path fill="#FFFFFF" d="M196.419,138.613v35.557v0.008c-0.005,19.639-14.479,35.564-27.915,35.564l-0.004-35.564
				C168.5,154.529,182.908,138.613,196.419,138.613z"/>
		</g>
		<g>
			<path fill="#FFFFFF" d="M168.504,211.993h-2.251l-0.005-37.365c0-21.386,15.93-37.366,30.171-37.366h2.251v37.357h-4.502v-32.688
				c-11.295,1.648-23.418,15.348-23.418,32.696l0.005,32.696c11.288-1.649,23.409-15.349,23.413-32.696h4.502
				C198.664,196.014,182.739,211.993,168.504,211.993z"/>
		</g>
		<g>
			<path fill="#FFFFFF" d="M194.168,174.178v-0.008c0.007-20.848,16.372-37.809,36.48-37.809v4.502
				c-17.627,0-31.973,14.941-31.979,33.307L194.168,174.178z"/>
		</g>
	</g>
</g>
</svg>
