<?xml version="1.0" encoding="utf-8"?>
<!-- Generator: Adobe Illustrator 16.0.0, SVG Export Plug-In . SVG Version: 6.00 Build 0)  -->
<!DOCTYPE svg PUBLIC "-//W3C//DTD SVG 1.1//EN" "http://www.w3.org/Graphics/SVG/1.1/DTD/svg11.dtd">
<svg version="1.1" xmlns="http://www.w3.org/2000/svg" xmlns:xlink="http://www.w3.org/1999/xlink" x="0px" y="0px" width="360px"
	 height="360px" viewBox="0 0 360 360" enable-background="new 0 0 360 360" xml:space="preserve">
<g id="Layer_1">
	<rect x="-1244" fill="#03BCD4" width="360" height="360"/>
	<g>
		<rect x="-1208" y="189" fill="#FFFFFF" width="153" height="252"/>
		<rect x="-1190" y="207" fill="#03BCD4" width="9" height="27"/>
		<rect x="-1154" y="207" fill="#03BCD4" width="9" height="27"/>
		<rect x="-1118" y="207" fill="#03BCD4" width="9" height="27"/>
		<rect x="-1082" y="207" fill="#03BCD4" width="9" height="27"/>
		<rect x="-1190" y="261" fill="#03BCD4" width="9" height="27"/>
		<rect x="-1154" y="261" fill="#03BCD4" width="9" height="27"/>
		<rect x="-1118" y="261" fill="#03BCD4" width="9" height="27"/>
		<rect x="-1082" y="261" fill="#03BCD4" width="9" height="27"/>
		<rect x="-1190" y="315" fill="#03BCD4" width="9" height="27"/>
		<rect x="-1154" y="315" fill="#03BCD4" width="9" height="27"/>
		<rect x="-1118" y="315" fill="#03BCD4" width="9" height="27"/>
		<rect x="-1082" y="315" fill="#03BCD4" width="9" height="27"/>
		<rect x="-1190" y="369" fill="#03BCD4" width="9" height="18"/>
		<rect x="-1154" y="369" fill="#03BCD4" width="9" height="18"/>
		<rect x="-1118" y="369" fill="#03BCD4" width="9" height="18"/>
		<rect x="-1082" y="369" fill="#03BCD4" width="9" height="18"/>
	</g>
	<rect x="-1243" fill="#03BCD4" width="360" height="360"/>
	<g>
		<rect x="-1207" y="189" fill="#FFFFFF" width="153" height="252"/>
		<rect x="-1189" y="207" fill="#03BCD4" width="9" height="27"/>
		<rect x="-1153" y="207" fill="#03BCD4" width="9" height="27"/>
		<rect x="-1117" y="207" fill="#03BCD4" width="9" height="27"/>
		<rect x="-1081" y="207" fill="#03BCD4" width="9" height="27"/>
		<rect x="-1189" y="261" fill="#03BCD4" width="9" height="27"/>
		<rect x="-1153" y="261" fill="#03BCD4" width="9" height="27"/>
		<rect x="-1117" y="261" fill="#03BCD4" width="9" height="27"/>
		<rect x="-1081" y="261" fill="#03BCD4" width="9" height="27"/>
		<rect x="-1189" y="315" fill="#03BCD4" width="9" height="27"/>
		<rect x="-1153" y="315" fill="#03BCD4" width="9" height="27"/>
		<rect x="-1117" y="315" fill="#03BCD4" width="9" height="27"/>
		<rect x="-1081" y="315" fill="#03BCD4" width="9" height="27"/>
		<rect x="-1189" y="369" fill="#03BCD4" width="9" height="18"/>
		<rect x="-1153" y="369" fill="#03BCD4" width="9" height="18"/>
		<rect x="-1117" y="369" fill="#03BCD4" width="9" height="18"/>
		<rect x="-1081" y="369" fill="#03BCD4" width="9" height="18"/>
	</g>
</g>
<g id="Layer_5">
	<rect fill="#03BCD4" width="360" height="360"/>
	<g>
		<rect x="63" y="152" transform="matrix(0.998 0.0634 -0.0634 0.998 15.3452 -8.37)" fill="#FFFFFF" width="153" height="171"/>
		
			<rect x="84.534" y="166.684" transform="matrix(0.998 0.0635 -0.0635 0.998 11.6162 -5.2879)" fill="#03BCD4" width="9.001" height="27"/>
		
			<rect x="120.462" y="168.967" transform="matrix(0.998 0.0634 -0.0634 0.998 11.8246 -7.5583)" fill="#03BCD4" width="9" height="27"/>
		
			<rect x="156.389" y="171.25" transform="matrix(0.998 0.0634 -0.0634 0.998 12.0418 -9.8324)" fill="#03BCD4" width="9" height="27"/>
		
			<rect x="192.316" y="173.534" transform="matrix(0.998 0.0634 -0.0634 0.998 12.2576 -12.1053)" fill="#03BCD4" width="9.001" height="27"/>
		
			<rect x="81.109" y="220.575" transform="matrix(0.998 0.0634 -0.0634 0.998 15.0186 -4.9585)" fill="#03BCD4" width="9" height="27"/>
		
			<rect x="117.036" y="222.858" transform="matrix(0.998 0.0634 -0.0634 0.998 15.2358 -7.2326)" fill="#03BCD4" width="9" height="27"/>
		
			<rect x="152.964" y="225.142" transform="matrix(0.998 0.0634 -0.0634 0.998 15.4513 -9.5058)" fill="#03BCD4" width="9.001" height="27"/>
		
			<rect x="188.891" y="227.425" transform="matrix(0.998 0.0634 -0.0634 0.998 15.6702 -11.7808)" fill="#03BCD4" width="9" height="27"/>
		
			<rect x="77.683" y="274.466" transform="matrix(0.998 0.0634 -0.0634 0.998 18.4278 -4.6323)" fill="#03BCD4" width="9.001" height="27"/>
		
			<rect x="113.611" y="276.749" transform="matrix(0.998 0.0634 -0.0634 0.998 18.6449 -6.9062)" fill="#03BCD4" width="9.001" height="27"/>
		
			<rect x="149.539" y="279.033" transform="matrix(0.998 0.0634 -0.0634 0.998 18.8642 -9.181)" fill="#03BCD4" width="9" height="27"/>
		
			<rect x="185.466" y="281.316" transform="matrix(0.998 0.0634 -0.0634 0.998 19.0813 -11.455)" fill="#03BCD4" width="9" height="27"/>
	</g>
	<path fill="#FFFFFF" d="M206.994,327.462c5.762,0.901,16.586-0.16,21.671-4.811s15.367-14.667,24.129-13.402
		c-5.484,17.759-13.229,35.094-15.484,53.089c14.404-14.765,54.86-47.219,44.11-71.5C270.653,266.519,227.556,276.042,209,283"/>
	<path fill="#FFFFFF" d="M57.73,317.976c-20.465-2.75-22.578,2.024-22.578,0.784C40.637,336.519,38.744,342.004,41,360
		c-14.404-14.765-42.25-54.66-31.5-78.942c10.767-24.319,35.159-14.017,53.715-7.058"/>
	<path fill="#FFFFFF" d="M213.001,219.667c14.969-6.34,44.329-23.206,38.239-44.274c-1.658-5.736-7.956-8.595-8.886-14.733
		c-1.465-9.671,8.653-17.073,17.133-18.366c10.617-1.619,22.688,4.878,24.706,16.002c1.749,9.647-4.997,15.258-10.627,21.794
		c-5.543,6.435-6.449,12.29-7.618,20.519c-1.699,11.958-5.622,22.64-12.267,32.781c-5.679,8.669-13.486,19.411-23.594,23.258
		c-5.93,2.258-12.899,2.265-19.087,3.685"/>
	<path fill="#FFFFFF" d="M64.334,229.667c-22.487-14.204-39.386-43.264-23.787-69.133c4.715-7.819,15.071-13.51,17.121-22.742
		c2.312-10.41-7.041-19.886-15.823-23.707c-8.611-3.747-20.515-3.434-24.188,6.755c-3.106,8.618,2.266,17.907,3.195,26.427
		c2.531,23.208-18.918,41.939-10.374,65.944c7.985,22.435,31.824,38.853,53.855,45.123"/>
</g>
<g id="Layer_2">
	<defs>
		<rect id="SVGID_1_" x="-821" width="360" height="360"/>
	</defs>
	<clipPath id="SVGID_2_">
		<use xlink:href="#SVGID_1_"  overflow="visible"/>
	</clipPath>
	<rect x="-821" clip-path="url(#SVGID_2_)" fill="#03BCD4" width="360" height="360"/>
	<g clip-path="url(#SVGID_2_)">
		<rect x="-650" y="90" fill="#FFFFFF" width="144" height="306"/>
		<line fill="#FFFFFF" stroke="#03BCD4" stroke-width="9" stroke-miterlimit="10" x1="-578.5" y1="162" x2="-578.5" y2="189"/>
		<line fill="#FFFFFF" stroke="#03BCD4" stroke-width="9" stroke-miterlimit="10" x1="-542.5" y1="162" x2="-542.5" y2="189"/>
		<line fill="#FFFFFF" stroke="#03BCD4" stroke-width="9" stroke-miterlimit="10" x1="-578.5" y1="216" x2="-578.5" y2="243"/>
		<line fill="#FFFFFF" stroke="#03BCD4" stroke-width="9" stroke-miterlimit="10" x1="-542.5" y1="216" x2="-542.5" y2="243"/>
		<line fill="#FFFFFF" stroke="#03BCD4" stroke-width="9" stroke-miterlimit="10" x1="-578.5" y1="270" x2="-578.5" y2="297"/>
		<line fill="#FFFFFF" stroke="#03BCD4" stroke-width="9" stroke-miterlimit="10" x1="-542.5" y1="270" x2="-542.5" y2="297"/>
		<line fill="#FFFFFF" stroke="#03BCD4" stroke-width="9" stroke-miterlimit="10" x1="-578.5" y1="324" x2="-578.5" y2="351"/>
		<line fill="#FFFFFF" stroke="#03BCD4" stroke-width="9" stroke-miterlimit="10" x1="-542.5" y1="324" x2="-542.5" y2="351"/>
		<line fill="#FFFFFF" stroke="#03BCD4" stroke-width="9" stroke-miterlimit="10" x1="-578.5" y1="378" x2="-578.5" y2="405"/>
		<line fill="#FFFFFF" stroke="#03BCD4" stroke-width="9" stroke-miterlimit="10" x1="-542.5" y1="378" x2="-542.5" y2="405"/>
		<line fill="#FFFFFF" stroke="#03BCD4" stroke-width="9" stroke-miterlimit="10" x1="-578.5" y1="108" x2="-578.5" y2="135"/>
		<g>
			<line fill="#FFFFFF" stroke="#03BCD4" stroke-width="9" stroke-miterlimit="10" x1="-614.5" y1="162" x2="-614.5" y2="189"/>
			<line fill="#FFFFFF" stroke="#03BCD4" stroke-width="9" stroke-miterlimit="10" x1="-614.5" y1="216" x2="-614.5" y2="243"/>
			<line fill="#FFFFFF" stroke="#03BCD4" stroke-width="9" stroke-miterlimit="10" x1="-614.5" y1="270" x2="-614.5" y2="297"/>
			<line fill="#FFFFFF" stroke="#03BCD4" stroke-width="9" stroke-miterlimit="10" x1="-614.5" y1="324" x2="-614.5" y2="351"/>
			<line fill="#FFFFFF" stroke="#03BCD4" stroke-width="9" stroke-miterlimit="10" x1="-614.5" y1="378" x2="-614.5" y2="405"/>
			<line fill="#FFFFFF" stroke="#03BCD4" stroke-width="9" stroke-miterlimit="10" x1="-614.5" y1="108" x2="-614.5" y2="135"/>
		</g>
		<line fill="#FFFFFF" stroke="#03BCD4" stroke-width="9" stroke-miterlimit="10" x1="-542.5" y1="108" x2="-542.5" y2="135"/>
	</g>
	<g clip-path="url(#SVGID_2_)">
		<rect x="-767.5" y="197.5" fill="#FFFFFF" stroke="#03BCD4" stroke-width="9" stroke-miterlimit="10" width="162" height="252"/>
		<line fill="#FFFFFF" stroke="#03BCD4" stroke-width="9" stroke-miterlimit="10" x1="-631.5" y1="216" x2="-631.5" y2="243"/>
		<line fill="#FFFFFF" stroke="#03BCD4" stroke-width="9" stroke-miterlimit="10" x1="-668.5" y1="216" x2="-668.5" y2="243"/>
		<line fill="#FFFFFF" stroke="#03BCD4" stroke-width="9" stroke-miterlimit="10" x1="-739.5" y1="216" x2="-739.5" y2="243"/>
		<line fill="#FFFFFF" stroke="#03BCD4" stroke-width="9" stroke-miterlimit="10" x1="-704.5" y1="216" x2="-704.5" y2="243"/>
		<line fill="#FFFFFF" stroke="#03BCD4" stroke-width="9" stroke-miterlimit="10" x1="-631.5" y1="252" x2="-631.5" y2="279"/>
		<line fill="#FFFFFF" stroke="#03BCD4" stroke-width="9" stroke-miterlimit="10" x1="-668.5" y1="252" x2="-668.5" y2="279"/>
		<line fill="#FFFFFF" stroke="#03BCD4" stroke-width="9" stroke-miterlimit="10" x1="-739.5" y1="252" x2="-739.5" y2="279"/>
		<line fill="#FFFFFF" stroke="#03BCD4" stroke-width="9" stroke-miterlimit="10" x1="-704.5" y1="252" x2="-704.5" y2="279"/>
		<line fill="#FFFFFF" stroke="#03BCD4" stroke-width="9" stroke-miterlimit="10" x1="-631.5" y1="288" x2="-631.5" y2="315"/>
		<line fill="#FFFFFF" stroke="#03BCD4" stroke-width="9" stroke-miterlimit="10" x1="-668.5" y1="288" x2="-668.5" y2="315"/>
		<line fill="#FFFFFF" stroke="#03BCD4" stroke-width="9" stroke-miterlimit="10" x1="-739.5" y1="288" x2="-739.5" y2="315"/>
		<line fill="#FFFFFF" stroke="#03BCD4" stroke-width="9" stroke-miterlimit="10" x1="-704.5" y1="288" x2="-704.5" y2="315"/>
		<line fill="#FFFFFF" stroke="#03BCD4" stroke-width="9" stroke-miterlimit="10" x1="-631.5" y1="324" x2="-631.5" y2="351"/>
		<line fill="#FFFFFF" stroke="#03BCD4" stroke-width="9" stroke-miterlimit="10" x1="-668.5" y1="324" x2="-668.5" y2="351"/>
		<line fill="#FFFFFF" stroke="#03BCD4" stroke-width="9" stroke-miterlimit="10" x1="-739.5" y1="324" x2="-739.5" y2="351"/>
		<line fill="#FFFFFF" stroke="#03BCD4" stroke-width="9" stroke-miterlimit="10" x1="-704.5" y1="324" x2="-704.5" y2="351"/>
		<line fill="#FFFFFF" stroke="#03BCD4" stroke-width="9" stroke-miterlimit="10" x1="-631.5" y1="360" x2="-631.5" y2="387"/>
		<line fill="#FFFFFF" stroke="#03BCD4" stroke-width="9" stroke-miterlimit="10" x1="-668.5" y1="360" x2="-668.5" y2="387"/>
		<line fill="#FFFFFF" stroke="#03BCD4" stroke-width="9" stroke-miterlimit="10" x1="-739.5" y1="360" x2="-739.5" y2="387"/>
		<line fill="#FFFFFF" stroke="#03BCD4" stroke-width="9" stroke-miterlimit="10" x1="-704.5" y1="360" x2="-704.5" y2="387"/>
		<line fill="#FFFFFF" stroke="#03BCD4" stroke-width="9" stroke-miterlimit="10" x1="-631.5" y1="396" x2="-631.5" y2="423"/>
		<line fill="#FFFFFF" stroke="#03BCD4" stroke-width="9" stroke-miterlimit="10" x1="-668.5" y1="396" x2="-668.5" y2="423"/>
		<line fill="#FFFFFF" stroke="#03BCD4" stroke-width="9" stroke-miterlimit="10" x1="-739.5" y1="396" x2="-739.5" y2="423"/>
		<line fill="#FFFFFF" stroke="#03BCD4" stroke-width="9" stroke-miterlimit="10" x1="-704.5" y1="396" x2="-704.5" y2="423"/>
		<line fill="#FFFFFF" stroke="#03BCD4" stroke-width="9" stroke-miterlimit="10" x1="-631.5" y1="432" x2="-631.5" y2="459"/>
		<line fill="#FFFFFF" stroke="#03BCD4" stroke-width="9" stroke-miterlimit="10" x1="-668.5" y1="432" x2="-668.5" y2="459"/>
		<line fill="#FFFFFF" stroke="#03BCD4" stroke-width="9" stroke-miterlimit="10" x1="-739.5" y1="432" x2="-739.5" y2="459"/>
		<line fill="#FFFFFF" stroke="#03BCD4" stroke-width="9" stroke-miterlimit="10" x1="-704.5" y1="432" x2="-704.5" y2="459"/>
	</g>
</g>
<g id="Layer_3">
	<defs>
		<rect id="SVGID_3_" x="-380" width="360" height="360"/>
	</defs>
	<clipPath id="SVGID_4_">
		<use xlink:href="#SVGID_3_"  overflow="visible"/>
	</clipPath>
	<rect x="-380" clip-path="url(#SVGID_4_)" fill="#03BCD4" width="360" height="360"/>
	<g clip-path="url(#SVGID_4_)">
		<polyline fill="none" stroke="#FFFFFF" stroke-width="6" stroke-miterlimit="10" points="-193.119,239.688 -118.5,98 
			-45.918,240.209 		"/>
		<polyline fill="none" stroke="#FFFFFF" stroke-width="6" stroke-linejoin="bevel" stroke-miterlimit="10" points="
			-110.061,115.03 -139.672,141.414 -74.651,183.372 -190.306,235.533 -45.181,258.444 		"/>
		<polyline fill="none" stroke="#FFFFFF" stroke-width="6" stroke-linejoin="bevel" stroke-miterlimit="10" points="
			-127.299,115.03 -97.688,141.414 -162.649,183.372 -48.962,235.533 -193.086,258.444 		"/>
	</g>
	<g clip-path="url(#SVGID_4_)">
		<rect x="-182.5" y="242.5" fill="#FFFFFF" stroke="#03BCD4" stroke-width="9" stroke-miterlimit="10" width="144" height="306"/>
		<line fill="#FFFFFF" stroke="#03BCD4" stroke-width="9" stroke-miterlimit="10" x1="-110.5" y1="314" x2="-110.5" y2="341"/>
		<line fill="#FFFFFF" stroke="#03BCD4" stroke-width="9" stroke-miterlimit="10" x1="-74.5" y1="314" x2="-74.5" y2="341"/>
		<line fill="#FFFFFF" stroke="#03BCD4" stroke-width="9" stroke-miterlimit="10" x1="-110.5" y1="368" x2="-110.5" y2="395"/>
		<line fill="#FFFFFF" stroke="#03BCD4" stroke-width="9" stroke-miterlimit="10" x1="-74.5" y1="368" x2="-74.5" y2="395"/>
		<line fill="#FFFFFF" stroke="#03BCD4" stroke-width="9" stroke-miterlimit="10" x1="-110.5" y1="422" x2="-110.5" y2="449"/>
		<line fill="#FFFFFF" stroke="#03BCD4" stroke-width="9" stroke-miterlimit="10" x1="-74.5" y1="422" x2="-74.5" y2="449"/>
		<line fill="#FFFFFF" stroke="#03BCD4" stroke-width="9" stroke-miterlimit="10" x1="-110.5" y1="476" x2="-110.5" y2="503"/>
		<line fill="#FFFFFF" stroke="#03BCD4" stroke-width="9" stroke-miterlimit="10" x1="-74.5" y1="476" x2="-74.5" y2="503"/>
		<line fill="#FFFFFF" stroke="#03BCD4" stroke-width="9" stroke-miterlimit="10" x1="-110.5" y1="530" x2="-110.5" y2="557"/>
		<line fill="#FFFFFF" stroke="#03BCD4" stroke-width="9" stroke-miterlimit="10" x1="-74.5" y1="530" x2="-74.5" y2="557"/>
		<line fill="#FFFFFF" stroke="#03BCD4" stroke-width="9" stroke-miterlimit="10" x1="-110.5" y1="260" x2="-110.5" y2="287"/>
		<line fill="#FFFFFF" stroke="#03BCD4" stroke-width="9" stroke-miterlimit="10" x1="-74.5" y1="260" x2="-74.5" y2="287"/>
		<line fill="#FFFFFF" stroke="#03BCD4" stroke-width="9" stroke-miterlimit="10" x1="-145.5" y1="260" x2="-145.5" y2="287"/>
		<line fill="#FFFFFF" stroke="#03BCD4" stroke-width="9" stroke-miterlimit="10" x1="-145.5" y1="314" x2="-145.5" y2="341"/>
		<line fill="#FFFFFF" stroke="#03BCD4" stroke-width="9" stroke-miterlimit="10" x1="-145.5" y1="368" x2="-145.5" y2="395"/>
		<line fill="#FFFFFF" stroke="#03BCD4" stroke-width="9" stroke-miterlimit="10" x1="-145.5" y1="422" x2="-145.5" y2="449"/>
		<line fill="#FFFFFF" stroke="#03BCD4" stroke-width="9" stroke-miterlimit="10" x1="-145.5" y1="476" x2="-145.5" y2="503"/>
		<line fill="#FFFFFF" stroke="#03BCD4" stroke-width="9" stroke-miterlimit="10" x1="-145.5" y1="530" x2="-145.5" y2="557"/>
	</g>
	
		<line clip-path="url(#SVGID_4_)" fill="#FFFFFF" stroke="#03BCD4" stroke-width="9" stroke-miterlimit="10" x1="-207.5" y1="387" x2="-207.5" y2="414"/>
	<g clip-path="url(#SVGID_4_)">
		<g>
			<ellipse fill="#FFFFFF" stroke="#03BCD4" stroke-width="9" stroke-miterlimit="10" cx="-227" cy="135" rx="72" ry="45"/>
			<rect x="-317.5" y="135.5" fill="#FFFFFF" stroke="#03BCD4" stroke-width="9" stroke-miterlimit="10" width="180" height="243"/>
			<rect x="-299.5" y="135.5" fill="#FFFFFF" stroke="#03BCD4" stroke-width="9" stroke-miterlimit="10" width="27" height="243"/>
			<rect x="-281.5" y="135.5" fill="#FFFFFF" stroke="#03BCD4" stroke-width="9" stroke-miterlimit="10" width="27" height="243"/>
			<rect x="-263.5" y="135.5" fill="#FFFFFF" stroke="#03BCD4" stroke-width="9" stroke-miterlimit="10" width="27" height="243"/>
			<rect x="-236.5" y="135.5" fill="#FFFFFF" stroke="#03BCD4" stroke-width="9" stroke-miterlimit="10" width="27" height="243"/>
			<rect x="-208.5" y="135.5" fill="#FFFFFF" stroke="#03BCD4" stroke-width="9" stroke-miterlimit="10" width="27" height="243"/>
			<rect x="-181.5" y="135.5" fill="#FFFFFF" stroke="#03BCD4" stroke-width="9" stroke-miterlimit="10" width="27" height="243"/>
		</g>
		<polygon fill="#FFFFFF" points="-231.919,90 -227.5,27.5 -221.582,90 		"/>
	</g>
	<g clip-path="url(#SVGID_4_)">
		<rect x="-352.5" y="206.5" fill="#FFFFFF" stroke="#03BCD4" stroke-width="9" stroke-miterlimit="10" width="126" height="252"/>
		<line fill="#FFFFFF" stroke="#03BCD4" stroke-width="9" stroke-miterlimit="10" x1="-252.5" y1="225" x2="-252.5" y2="252"/>
		<line fill="#FFFFFF" stroke="#03BCD4" stroke-width="9" stroke-miterlimit="10" x1="-323.5" y1="225" x2="-323.5" y2="252"/>
		<line fill="#FFFFFF" stroke="#03BCD4" stroke-width="9" stroke-miterlimit="10" x1="-288.5" y1="225" x2="-288.5" y2="252"/>
		<line fill="#FFFFFF" stroke="#03BCD4" stroke-width="9" stroke-miterlimit="10" x1="-252.5" y1="261" x2="-252.5" y2="288"/>
		<line fill="#FFFFFF" stroke="#03BCD4" stroke-width="9" stroke-miterlimit="10" x1="-323.5" y1="261" x2="-323.5" y2="288"/>
		<line fill="#FFFFFF" stroke="#03BCD4" stroke-width="9" stroke-miterlimit="10" x1="-288.5" y1="261" x2="-288.5" y2="288"/>
		<line fill="#FFFFFF" stroke="#03BCD4" stroke-width="9" stroke-miterlimit="10" x1="-252.5" y1="297" x2="-252.5" y2="324"/>
		<line fill="#FFFFFF" stroke="#03BCD4" stroke-width="9" stroke-miterlimit="10" x1="-323.5" y1="297" x2="-323.5" y2="324"/>
		<line fill="#FFFFFF" stroke="#03BCD4" stroke-width="9" stroke-miterlimit="10" x1="-288.5" y1="297" x2="-288.5" y2="324"/>
		<line fill="#FFFFFF" stroke="#03BCD4" stroke-width="9" stroke-miterlimit="10" x1="-252.5" y1="333" x2="-252.5" y2="360"/>
		<line fill="#FFFFFF" stroke="#03BCD4" stroke-width="9" stroke-miterlimit="10" x1="-323.5" y1="333" x2="-323.5" y2="360"/>
		<line fill="#FFFFFF" stroke="#03BCD4" stroke-width="9" stroke-miterlimit="10" x1="-288.5" y1="333" x2="-288.5" y2="360"/>
		<line fill="#FFFFFF" stroke="#03BCD4" stroke-width="9" stroke-miterlimit="10" x1="-252.5" y1="369" x2="-252.5" y2="396"/>
		<line fill="#FFFFFF" stroke="#03BCD4" stroke-width="9" stroke-miterlimit="10" x1="-323.5" y1="369" x2="-323.5" y2="396"/>
		<line fill="#FFFFFF" stroke="#03BCD4" stroke-width="9" stroke-miterlimit="10" x1="-288.5" y1="369" x2="-288.5" y2="396"/>
		<line fill="#FFFFFF" stroke="#03BCD4" stroke-width="9" stroke-miterlimit="10" x1="-252.5" y1="405" x2="-252.5" y2="432"/>
		<line fill="#FFFFFF" stroke="#03BCD4" stroke-width="9" stroke-miterlimit="10" x1="-323.5" y1="405" x2="-323.5" y2="432"/>
		<line fill="#FFFFFF" stroke="#03BCD4" stroke-width="9" stroke-miterlimit="10" x1="-288.5" y1="405" x2="-288.5" y2="432"/>
	</g>
	
		<line clip-path="url(#SVGID_4_)" fill="#FFFFFF" stroke="#03BCD4" stroke-width="9" stroke-miterlimit="10" x1="-207.5" y1="423" x2="-207.5" y2="450"/>
	
		<line clip-path="url(#SVGID_4_)" fill="#FFFFFF" stroke="#03BCD4" stroke-width="9" stroke-miterlimit="10" x1="-244.5" y1="423" x2="-244.5" y2="450"/>
	
		<line clip-path="url(#SVGID_4_)" fill="#FFFFFF" stroke="#03BCD4" stroke-width="9" stroke-miterlimit="10" x1="-315.5" y1="423" x2="-315.5" y2="450"/>
	
		<line clip-path="url(#SVGID_4_)" fill="#FFFFFF" stroke="#03BCD4" stroke-width="9" stroke-miterlimit="10" x1="-280.5" y1="423" x2="-280.5" y2="450"/>
	<g clip-path="url(#SVGID_4_)">
		<path fill="#FFFFFF" stroke="#03BCD4" stroke-width="3" stroke-miterlimit="10" d="M-48.93,102.699
			c5.53-5.53-8.728-28.931-31.96-52.163c-23.227-23.227-46.674-37.444-52.205-31.914c-0.84,0.84-1.625,2.215-1.309,3.829
			c0.317,1.614,20.773,60.825,20.773,60.825s58.201,20.035,60.827,20.776S-49.77,103.539-48.93,102.699z"/>
		<path fill="#FFFFFF" stroke="#03BCD4" stroke-width="3.2247" stroke-miterlimit="10" d="M-46.424,100.193
			c-5.53,5.53-28.842-8.817-52.075-32.049c-23.227-23.227-37.576-46.542-32.046-52.072c5.53-5.53,28.845,8.82,52.071,32.046
			C-55.241,71.351-40.895,94.664-46.424,100.193z"/>
		<path fill="#FFFFFF" stroke="#03BCD4" stroke-width="3" stroke-miterlimit="10" d="M-94.223,56.864l44.706-40.037l2.336,2.336
			l-40.032,44.711c0,0-3.437,1.016-5.734-1.282C-95.245,60.294-94.223,56.864-94.223,56.864z"/>
	</g>
</g>
<g id="Layer_4">
	<polygon fill="#FFFFFF" points="-172,-291.938 -182.632,-297 -161.367,-297 	"/>
	
		<ellipse fill="#FFFFFF" stroke="#03BCD4" stroke-width="0.5764" stroke-miterlimit="10" cx="-172" cy="-297.578" rx="10.633" ry="2.531"/>
	
		<ellipse fill="#FFFFFF" stroke="#03BCD4" stroke-width="0.5764" stroke-miterlimit="10" cx="-172" cy="-298.703" rx="10.633" ry="2.531"/>
	<polygon fill="#FFFFFF" stroke="#03BCD4" stroke-miterlimit="10" points="-172.886,-297.695 -172.295,-308.5 -171.705,-308.5 
		-171.114,-297.695 -172,-297.133 	"/>
	<polyline fill="none" stroke="#03BCD4" stroke-width="3.2247" stroke-miterlimit="10" points="-53.039,-43.937 -7.119,-132.312 
		66.5,-274 140.082,-131.791 185.54,-43.937 	"/>
	<polyline fill="none" stroke="#03BCD4" stroke-width="3.2247" stroke-linejoin="bevel" stroke-miterlimit="10" points="
		74.939,-256.97 45.328,-230.586 110.349,-188.628 -5.306,-136.467 140.819,-113.556 -22.81,-90.672 170.07,-68.021 
		-50.635,-47.653 	"/>
	<polyline fill="none" stroke="#03BCD4" stroke-width="3.2247" stroke-linejoin="bevel" stroke-miterlimit="10" points="
		57.701,-256.97 87.312,-230.586 22.351,-188.628 138.038,-136.467 -8.086,-113.556 155.543,-90.672 -37.337,-68.021 
		183.368,-47.653 	"/>
	<polyline fill="none" stroke="#03BCD4" stroke-width="3.2247" stroke-miterlimit="10" points="252.881,-132.312 327.5,-274 
		400.082,-131.791 	"/>
	<polyline fill="none" stroke="#03BCD4" stroke-width="3.2247" stroke-linejoin="bevel" stroke-miterlimit="10" points="
		335.939,-256.97 306.328,-230.586 371.349,-188.628 255.694,-136.467 400.819,-113.556 	"/>
	<polyline fill="none" stroke="#03BCD4" stroke-width="3.2247" stroke-linejoin="bevel" stroke-miterlimit="10" points="
		318.701,-256.97 348.312,-230.586 283.351,-188.628 397.038,-136.467 252.914,-113.556 	"/>
</g>
</svg>
